<?xml version="1.0" encoding="UTF-8" standalone="no"?>
<svg xmlns:sketch="http://www.bohemiancoding.com/sketch/ns" xmlns="http://www.w3.org/2000/svg" height="21px" width="23px" version="1.1" xmlns:xlink="http://www.w3.org/1999/xlink" viewBox="0 0 23 21">
 <title>Shape</title> 
 <g id="Desktop" fill-rule="evenodd" sketch:type="MSPage" fill="none">
  <g id="Página-Inicial" transform="translate(-589 -28)" fill="currentColor" sketch:type="MSArtboardGroup">
   <g id="topo" sketch:type="MSLayerGroup">
    <g id="nav" sketch:type="MSShapeGroup" transform="translate(28 25)">
     <g id="atendimento" transform="translate(561.5 3.1855)">
      <g id="Group">
       <path id="Shape" d="m15.675 0.014366c-2.713 0-5.052 1.4318-6.0886 3.48-0.2021-0.0291-0.4003-0.0349-0.5236-0.0349-0.448 0-1.6156 0.0785-2.7824 0.8054-0.6406 0.399-0.9399 0.9663-0.9708 1.8391-0.0001 0.0027-0.0001 0.0052-0.0001 0.008h0.0022l-0.0013 1.4644-0.0005 0.0002c-0.0104 0.003-0.0206 0.0068-0.0303 0.0111-0.1519 0.0684-0.2314 0.0376-0.2503 0.3566-0.0215 0.3634 0.0417 1.3235 0.4338 1.563 0.0586 0.0603 0.0973 0.2248 0.1205 0.4079 0.0435 0.3428 0.0926 0.7308 0.2859 0.9848 0.44 0.579 0.3244 1.475 0.3146 1.544-0.0015 0.001-0.0036 0.002-0.0065 0.004-0.2711 0.122-0.3423 0.359-0.3944 0.532l-0.0266 0.086c-0.0702 0.226-0.1366 0.44-0.228 0.643-0.0123 0.018-0.0653 0.06-0.134 0.086l-0.2003 0.076c-1.2665 0.486-2.576 0.988-3.7922 1.66-1.1497 0.636-1.3914 4.077-1.4012 4.186-0.0058296 0.066 0.016189 0.131 0.060649 0.18 0.044461 0.048 0.10728 0.076 0.17319 0.076h8.3884 8.3879c0.066 0 0.129-0.028 0.174-0.076 0.044-0.049 0.066-0.114 0.06-0.18-0.01-0.109-0.251-3.55-1.401-4.186-1.216-0.672-2.526-1.174-3.792-1.66l-0.2-0.076c-0.069-0.027-0.122-0.068-0.134-0.086-0.092-0.203-0.158-0.417-0.228-0.643l-0.027-0.086c-0.052-0.173-0.123-0.41-0.394-0.532-0.003-0.002-0.005-0.003-0.007-0.004-0.01-0.069-0.125-0.965 0.315-1.544 0.092-0.121 0.151-0.273 0.193-0.435 0.902 0.622 1.993 1.045 3.189 1.189v2.148c0 0.227 0.138 0.431 0.349 0.515 0.067 0.026 0.136 0.039 0.205 0.039 0.15 0 0.296-0.06 0.403-0.173l2.915-3.08c1.069-0.464 1.976-1.1724 2.628-2.0526 0.704-0.9484 1.076-2.0511 1.076-3.1887 0-3.2242-2.988-5.8473-6.66-5.8473v-0.000034zm2.421 10.113c-0.072 0.029-0.137 0.074-0.19 0.131l-2.038 2.152v-1.265c0-0.295-0.232-0.538-0.526-0.553-1.314-0.067-2.5-0.523-3.408-1.2312 0.258-0.36 0.301-1.106 0.283-1.4165-0.019-0.3191-0.099-0.2883-0.25-0.3566-0.01-0.0044-0.02-0.0082-0.031-0.0112v-0.0001-1.4642c-0.001-0.7452-0.181-1.2464-0.553-1.5322-0.164-0.1266-0.353-0.245-0.535-0.3596-0.1-0.0628-0.202-0.1265-0.293-0.1885 0.84-1.7072 2.819-2.9091 5.12-2.9091 3.061 0 5.551 2.1258 5.551 4.7388 0 1.8017-1.228 3.4758-3.13 4.2654z"/>
      </g>
     </g>
    </g>
   </g>
  </g>
 </g>
</svg>
