<?xml version="1.0" encoding="UTF-8" standalone="no"?>
<svg xmlns:sketch="http://www.bohemiancoding.com/sketch/ns" xmlns="http://www.w3.org/2000/svg" height="20px" width="26px" version="1.1" xmlns:xlink="http://www.w3.org/1999/xlink" viewBox="0 0 26 20">
 <title>checked21</title> 
 <g id="Desktop" fill-rule="evenodd" sketch:type="MSPage" fill="none">
  <g id="Carrinho" transform="translate(-1201 -110)" fill="currentColor" sketch:type="MSArtboardGroup">
   <g id="carrinho" transform="translate(30 110)" sketch:type="MSLayerGroup">
    <g id="passos" sketch:type="MSShapeGroup" transform="translate(777)">
     <g id="checked21-+-Confirmação-da-compr" transform="translate(371)">
      <g id="checked21" transform="translate(23)">
       <path id="Shape" d="m25.129 3.1647l-2.829-2.8505c-0.335-0.33734-0.878-0.33734-1.212 0.00002l-11.784 11.874-5.0118-5.0499c-0.3347-0.3374-0.8776-0.3374-1.2123 0l-2.8288 2.8505c-0.33477 0.3374-0.33477 0.8844 0.00002 1.2214l8.4468 8.512c0.1674 0.168 0.3868 0.253 0.6062 0.253s0.4388-0.085 0.6061-0.253l15.219-15.336c0.161-0.1617 0.251-0.3814 0.251-0.6105 0-0.2292-0.09-0.4488-0.251-0.6108z"/>
      </g>
     </g>
    </g>
   </g>
  </g>
 </g>
</svg>
