<?xml version="1.0" encoding="UTF-8" standalone="no"?>
<svg xmlns:sketch="http://www.bohemiancoding.com/sketch/ns" xmlns="http://www.w3.org/2000/svg" height="16px" width="23px" version="1.1" xmlns:xlink="http://www.w3.org/1999/xlink" viewBox="0 0 23 16">
 <title>truck</title> 
 <g id="Desktop" fill-rule="evenodd" sketch:type="MSPage" fill="none">
  <g id="Página-Inicial" transform="translate(-156 -1209)" fill="currentColor" sketch:type="MSArtboardGroup">
   <g id="galeria-produtos" transform="translate(34 816)" sketch:type="MSLayerGroup">
    <g id="produto" sketch:type="MSShapeGroup">
     <g id="selo-frete" transform="translate(122 392)">
      <g id="truck" transform="translate(0 1)">
       <path id="Shape" d="m0.78598 10.649v-9.6439c0-0.53588 0.42932-0.97032 0.95892-0.97032l9.5251-0.000002c0.53 0 0.959 0.43444 0.959 0.97032v9.6439c0 0.179-0.143 0.323-0.319 0.323h-10.804c-0.17695 0-0.32002-0.144-0.32002-0.323zm7.6921 3.304c0 1.111-0.8905 2.012-1.9888 2.012-1.0984 0-1.9889-0.901-1.9889-2.012 0-1.112 0.8905-2.013 1.9889-2.013 1.0983 0 1.9888 0.901 1.9888 2.013zm-0.9945 0c0-0.556-0.4452-1.007-0.9944-1.007s-0.9944 0.451-0.9944 1.007c0 0.555 0.4452 1.006 0.9944 1.006s0.9944-0.451 0.9944-1.006zm-2.7073-2.013h-4.4567c-0.17649 0-0.3196 0.145-0.3196 0.324v0.981c0 0.179 0.14311 0.323 0.31964 0.323h3.5723c0.0932-0.647 0.4162-1.219 0.8844-1.628zm14.108 2.013c0 1.111-0.89 2.012-1.989 2.012-1.098 0-1.989-0.901-1.989-2.012 0-1.112 0.891-2.013 1.989-2.013 1.099 0 1.989 0.901 1.989 2.013zm-0.994 0c0-0.556-0.446-1.007-0.995-1.007s-0.994 0.451-0.994 1.007c0 0.555 0.445 1.006 0.994 1.006s0.995-0.451 0.995-1.006zm4.51-1.689v0.981c0 0.179-0.143 0.323-0.32 0.323h-2.587c-0.186-1.284-1.278-2.275-2.598-2.275s-2.412 0.991-2.597 2.275h-5.2113c-0.0933-0.647-0.4163-1.219-0.8845-1.628h4.9408v-9.2513c0-0.3573 0.286-0.6469 0.639-0.6469h3.018c0.85 0 1.644 0.4271 2.119 1.1396l1.946 2.9156c0.285 0.4277 0.437 0.9319 0.437 1.4479v4.3951h0.778c0.177 0 0.32 0.145 0.32 0.324zm-3.243-6.0923l-1.555-2.2368c-0.06-0.0861-0.158-0.1373-0.262-0.1373h-2.426c-0.177 0-0.32 0.1448-0.32 0.3234v2.2368c0 0.1787 0.143 0.3235 0.32 0.3235h3.982c0.259 0 0.41-0.2953 0.261-0.5096z"/>
      </g>
     </g>
    </g>
   </g>
  </g>
 </g>
</svg>
