<?xml version="1.0" encoding="UTF-8"?>
<svg width="20px" height="23px" viewBox="0 0 20 23" version="1.1" xmlns="http://www.w3.org/2000/svg" xmlns:xlink="http://www.w3.org/1999/xlink">
    <title>I</title>
    <g stroke="none" stroke-width="1" fill="none" fill-rule="evenodd">
        <g id="Painel-do-usuário---Pedidos" transform="translate(-985.000000, -350.000000)" fill="currentColor">
            <g id="conteúdo" transform="translate(27.000000, 111.000000)">
                <g id="pedido" transform="translate(0.000000, 167.000000)">
                    <g id="tabela">
                        <g id="item-aberto" transform="translate(0.000000, 43.000000)">
                            <g id="invoice" transform="translate(958.000000, 29.000000)">
                                <g id="Layer_1">
                                    <g>
                                        <path d="M16.0612329,15.3333184 C13.9126941,15.3333184 12.1647489,17.0529277 12.1647489,19.1666367 C12.1647489,21.2803457 13.9126484,23 16.0612329,23 C18.2098174,23 19.9577169,21.2803906 19.9577169,19.1666816 C19.9577169,17.0529727 18.2097717,15.3333184 16.0612329,15.3333184 Z M16.0612329,22.1481465 C14.390137,22.1481465 13.0306393,20.8106875 13.0306393,19.1666816 C13.0306393,17.5226758 14.390137,16.1852168 16.0612329,16.1852168 C17.7323288,16.1852168 19.0918265,17.5226758 19.0918265,19.1666816 C19.0918265,20.8106875 17.7323288,22.1481465 16.0612329,22.1481465 Z" id="Shape"></path>
                                        <path d="M18.070137,17.561668 C17.8864384,17.4111797 17.613516,17.4355273 17.4603653,17.616248 L15.5992237,19.8134668 L14.6355708,18.8655254 C14.4666667,18.6991348 14.1922831,18.6991348 14.023379,18.8655254 C13.8542466,19.0317812 13.8542466,19.3015371 14.023379,19.467793 L15.3221918,20.7455508 C15.4035616,20.8256016 15.5136986,20.8703437 15.6283105,20.8703437 C15.6348402,20.8703437 15.6414155,20.8702539 15.6479452,20.8699395 C15.7694064,20.8645488 15.8830137,20.8089805 15.9609132,20.7170703 L18.1256164,18.1615098 C18.2786758,17.980834 18.2538356,17.7123359 18.070137,17.561668 Z" id="Shape"></path>
                                        <path d="M16.0612329,0 L0.475205479,0 C0.236118721,0 0.0422374429,0.190693359 0.0422374429,0.425949219 L0.0422374429,21.7222422 C0.0422374429,21.8757402 0.126164384,22.0172441 0.261872146,22.0928477 C0.39739726,22.168541 0.564063927,22.1664746 0.697899543,22.087457 L2.61305936,20.957043 L4.11187215,22.0630195 C4.25278539,22.1670137 4.44365297,22.176582 4.59438356,22.087457 L6.50954338,20.957043 L8.00835616,22.0630195 C8.08511416,22.1195762 8.17639269,22.1481914 8.26817352,22.1481914 C8.34502283,22.1481914 8.42219178,22.1281113 8.49086758,22.087457 L10.6555708,20.8096992 C10.8606393,20.6886797 10.9271233,20.4270098 10.8040639,20.2254004 C10.6810502,20.023791 10.4149772,19.95825 10.210137,20.0793145 L8.29497717,21.2097285 L6.79616438,20.103752 C6.65506849,19.9997578 6.46438356,19.9900996 6.31365297,20.0793145 L4.39849315,21.2097285 L2.89968037,20.103752 C2.75858447,19.9997578 2.56789954,19.9900996 2.41716895,20.0793145 L0.908173516,20.9699805 L0.908173516,0.851853516 L15.6282648,0.851853516 L15.6282648,14.0555605 C15.6282648,14.2907715 15.8221005,14.4814648 16.0611872,14.4814648 C16.300274,14.4814648 16.4941553,14.2907715 16.4941553,14.0555605 L16.4941553,0.425949219 C16.4941553,0.190693359 16.3003196,0 16.0612329,0 Z" id="Shape"></path>
                                        <path d="M4.80465753,3.83331836 L2.63995434,3.83331836 C2.40086758,3.83331836 2.2069863,4.02401172 2.2069863,4.25926758 C2.2069863,4.49452344 2.40082192,4.6852168 2.63995434,4.6852168 L4.80465753,4.6852168 C5.04374429,4.6852168 5.23757991,4.49452344 5.23757991,4.25926758 C5.23757991,4.02401172 5.04374429,3.83331836 4.80465753,3.83331836 Z" id="Shape"></path>
                                        <path d="M13.0305936,5.96297461 L10.8658904,5.96297461 C10.6268037,5.96297461 10.432968,6.15366797 10.432968,6.38892383 C10.432968,6.62417969 10.6268037,6.81482813 10.8658904,6.81482813 L13.0305936,6.81482813 C13.2696804,6.81482813 13.4635616,6.62413477 13.4635616,6.38892383 C13.4635616,6.15371289 13.269726,5.96297461 13.0305936,5.96297461 Z" id="Shape"></path>
                                        <path d="M13.0305936,8.09258594 L10.8658904,8.09258594 C10.6268037,8.09258594 10.432968,8.2832793 10.432968,8.51853516 C10.432968,8.75379102 10.6268037,8.94443945 10.8658904,8.94443945 L13.0305936,8.94443945 C13.2696804,8.94443945 13.4635616,8.75374609 13.4635616,8.51853516 C13.4635616,8.28332422 13.269726,8.09258594 13.0305936,8.09258594 Z" id="Shape"></path>
                                        <path d="M13.0305936,10.2222422 L10.8658904,10.2222422 C10.6268037,10.2222422 10.432968,10.4129355 10.432968,10.6481914 C10.432968,10.8834473 10.6268037,11.0740957 10.8658904,11.0740957 L13.0305936,11.0740957 C13.2696804,11.0740957 13.4635616,10.8834023 13.4635616,10.6481914 C13.4635616,10.4129805 13.269726,10.2222422 13.0305936,10.2222422 Z" id="Shape"></path>
                                        <path d="M13.0305936,12.3518535 L10.8658904,12.3518535 C10.6268037,12.3518535 10.432968,12.5425469 10.432968,12.7778027 C10.432968,13.0130586 10.6268037,13.203707 10.8658904,13.203707 L13.0305936,13.203707 C13.2696804,13.203707 13.4635616,13.0130137 13.4635616,12.7778027 C13.4635616,12.5425918 13.269726,12.3518535 13.0305936,12.3518535 Z" id="Shape"></path>
                                        <path d="M13.0305936,14.4814648 L10.8658904,14.4814648 C10.6268037,14.4814648 10.432968,14.6721582 10.432968,14.9074141 C10.432968,15.1426699 10.6268037,15.3333184 10.8658904,15.3333184 L13.0305936,15.3333184 C13.2696804,15.3333184 13.4635616,15.142625 13.4635616,14.9074141 C13.4635616,14.6722031 13.269726,14.4814648 13.0305936,14.4814648 Z" id="Shape"></path>
                                        <path d="M8.70118721,5.96297461 L2.63995434,5.96297461 C2.40086758,5.96297461 2.2069863,6.15366797 2.2069863,6.38892383 C2.2069863,6.62417969 2.40082192,6.81482813 2.63995434,6.81482813 L8.70118721,6.81482813 C8.94027397,6.81482813 9.13415525,6.62413477 9.13415525,6.38892383 C9.13415525,6.15371289 8.94027397,5.96297461 8.70118721,5.96297461 Z" id="Shape"></path>
                                        <path d="M8.70118721,8.09258594 L2.63995434,8.09258594 C2.40086758,8.09258594 2.2069863,8.2832793 2.2069863,8.51853516 C2.2069863,8.75379102 2.40082192,8.94443945 2.63995434,8.94443945 L8.70118721,8.94443945 C8.94027397,8.94443945 9.13415525,8.75374609 9.13415525,8.51853516 C9.13415525,8.28332422 8.94027397,8.09258594 8.70118721,8.09258594 Z" id="Shape"></path>
                                        <path d="M8.70118721,10.2222422 L2.63995434,10.2222422 C2.40086758,10.2222422 2.2069863,10.4129355 2.2069863,10.6481914 C2.2069863,10.8834473 2.40082192,11.0740957 2.63995434,11.0740957 L8.70118721,11.0740957 C8.94027397,11.0740957 9.13415525,10.8834023 9.13415525,10.6481914 C9.13415525,10.4129805 8.94027397,10.2222422 8.70118721,10.2222422 Z" id="Shape"></path>
                                        <path d="M8.70118721,12.3518535 L2.63995434,12.3518535 C2.40086758,12.3518535 2.2069863,12.5425469 2.2069863,12.7778027 C2.2069863,13.0130586 2.40082192,13.203707 2.63995434,13.203707 L8.70118721,13.203707 C8.94027397,13.203707 9.13415525,13.0130137 9.13415525,12.7778027 C9.13415525,12.5425918 8.94027397,12.3518535 8.70118721,12.3518535 Z" id="Shape"></path>
                                        <path d="M8.70118721,14.4814648 L2.63995434,14.4814648 C2.40086758,14.4814648 2.2069863,14.6721582 2.2069863,14.9074141 C2.2069863,15.1426699 2.40082192,15.3333184 2.63995434,15.3333184 L8.70118721,15.3333184 C8.94027397,15.3333184 9.13415525,15.142625 9.13415525,14.9074141 C9.13415525,14.6722031 8.94027397,14.4814648 8.70118721,14.4814648 Z" id="Shape"></path>
                                    </g>
                                </g>
                            </g>
                        </g>
                    </g>
                </g>
            </g>
        </g>
    </g>
</svg>