<?xml version="1.0" encoding="UTF-8"?>
<svg width="19px" height="19px" viewBox="0 0 19 19" version="1.1" xmlns="http://www.w3.org/2000/svg" xmlns:xlink="http://www.w3.org/1999/xlink">
    <title>house-key</title>
    <g stroke="none" stroke-width="1" fill="none" fill-rule="evenodd">
        <g id="Painel-do-usuário---Pedidos" transform="translate(-981.000000, -129.000000)" fill="currentColor">
            <g id="conteúdo" transform="translate(27.000000, 111.000000)">
                <g id="nav" transform="translate(662.000000, 17.000000)">
                    <g id="item-copy-3" transform="translate(292.000000, 1.000000)">
                        <g id="house-key">
                            <g id="Layer_1">
                                <path d="M18.4887937,15.6786538 C18.4797587,15.5609336 18.4271434,15.4477308 18.3408462,15.3632937 L10.8841434,7.90659091 C11.177514,7.21548252 11.3323706,6.46704196 11.3323706,5.69355594 C11.3323706,4.18192657 10.7427727,2.75965035 9.67565035,1.68987063 C8.607,0.622216783 7.18572028,0.0332167832 5.67322727,0.0332167832 C4.1600035,0.0332167832 2.74118182,0.622416084 1.6708042,1.69073427 C-0.537646853,3.89798951 -0.538111888,7.48812587 1.67047203,9.69518182 C2.74078322,10.7657587 4.16006993,11.3553566 5.6724965,11.3553566 C6.44618182,11.3553566 7.19276224,11.1992378 7.88553147,10.9054685 L10.3352028,13.357 C10.4371119,13.4576469 10.571507,13.5110594 10.7165315,13.5063427 L12.051514,13.459507 L12.0079336,14.7978112 C12.0038147,14.9389825 12.0547692,15.0763671 12.1570769,15.1768811 C12.2556643,15.2773287 12.3941783,15.3319371 12.5347517,15.3262238 L13.8746503,15.280451 L13.8265524,16.6172937 C13.8223671,16.7585979 13.8766434,16.8962483 13.9752308,16.9967622 C14.0771399,17.0972098 14.1958566,17.1512203 14.3565594,17.1463042 L15.6931364,17.1008636 L15.6483601,18.4379056 C15.640521,18.5861853 15.7029685,18.7288182 15.8089965,18.8300629 C15.9067867,18.9190175 16.0288252,18.9669161 16.1574406,18.9669161 C16.1759091,18.9669161 16.1948427,18.9661189 16.2137098,18.964458 L18.2632517,18.7368566 C18.5402133,18.7066294 18.7419056,18.4594965 18.7181224,18.1819371 L18.4887937,15.6786538 Z M5.43582539,5.49520169 C4.70404321,6.23513014 3.52095932,6.23513014 2.79072164,5.49520169 C2.05940281,4.75503873 2.05940281,3.55775539 2.79072164,2.81829594 C3.52095932,2.07883649 4.70365708,2.07813299 5.43582539,2.81806144 C6.16614029,3.55744272 6.16567694,4.75550774 5.43582539,5.49520169 Z M16.7392657,15.8493881 C16.6644615,15.9241923 16.5642133,15.961528 16.4668217,15.961528 C16.3694301,15.961528 16.2691154,15.9241259 16.1943776,15.8493881 L9.84990559,9.50305594 C10.0265524,9.31259091 10.1871888,9.11209441 10.3330769,8.9013007 L16.7391993,15.3061608 C16.8888077,15.4557692 16.8888077,15.6998462 16.7392657,15.8493881 Z" id="Shape"></path>
                            </g>
                        </g>
                    </g>
                </g>
            </g>
        </g>
    </g>
</svg>