<?xml version="1.0" encoding="UTF-8"?>
<svg width="18px" height="18px" viewBox="0 0 18 18" version="1.1" xmlns="http://www.w3.org/2000/svg" xmlns:xlink="http://www.w3.org/1999/xlink">
    <title>Voltar</title>
    <g stroke="none" stroke-width="1" fill="none" fill-rule="evenodd">
        <g id="Painel-do-usuário---Pedidos" transform="translate(-1135.000000, -131.000000)" fill-rule="nonzero" fill="currentColor">
            <g id="conteúdo" transform="translate(27.000000, 111.000000)">
                <g id="nav" transform="translate(662.000000, 17.000000)">
                    <g id="item-copy-4" transform="translate(446.000000, 1.000000)">
                        <g id="previous" transform="translate(0.000000, 2.000000)">
                            <g id="Layer_1">
                                <g id="Group">
                                    <path d="M8.99265306,17.9853061 C13.9518367,17.9853061 17.9853061,13.9518367 17.9853061,8.99265306 C17.9853061,4.03346939 13.9518367,0 8.99265306,0 C4.03346939,0 0,4.03346939 0,8.99265306 C0,13.9518367 4.03346939,17.9853061 8.99265306,17.9853061 Z M8.99265306,0.727346939 C13.5514286,0.727346939 17.2579592,4.43387755 17.2579592,8.99265306 C17.2579592,13.5514286 13.5514286,17.2579592 8.99265306,17.2579592 C4.43387755,17.2579592 0.727346939,13.5514286 0.727346939,8.99265306 C0.727346939,4.43387755 4.43387755,0.727346939 8.99265306,0.727346939 Z" id="Shape"></path>
                                    <path d="M9.75306122,11.9791837 C9.82285714,12.0489796 9.91836735,12.0857143 10.0102041,12.0857143 C10.1020408,12.0857143 10.197551,12.0489796 10.2673469,11.9791837 C10.4106122,11.8359184 10.4106122,11.6081633 10.2673469,11.464898 L7.79510204,8.99265306 L10.2673469,6.52040816 C10.4106122,6.37714286 10.4106122,6.14938776 10.2673469,6.00612245 C10.1240816,5.86285714 9.89632653,5.86285714 9.75306122,6.00612245 L7.02367347,8.7355102 C6.88040816,8.87877551 6.88040816,9.10653061 7.02367347,9.24979592 L9.75306122,11.9791837 Z" id="Shape"></path>
                                </g>
                            </g>
                        </g>
                    </g>
                </g>
            </g>
        </g>
    </g>
</svg>