<?xml version="1.0" encoding="UTF-8" standalone="no"?>
<svg xmlns:sketch="http://www.bohemiancoding.com/sketch/ns" xmlns="http://www.w3.org/2000/svg" height="20px" width="20px" version="1.1" xmlns:xlink="http://www.w3.org/1999/xlink" viewBox="0 0 20 20">
 <title>user168</title>
 <g id="Desktop" fill-rule="evenodd" sketch:type="MSPage" fill="none">
  <g id="Carrinho" transform="translate(-943 -110)" fill="currentColor" sketch:type="MSArtboardGroup">
   <g id="carrinho" transform="translate(30 110)" sketch:type="MSLayerGroup">
    <g id="passos" sketch:type="MSShapeGroup" transform="translate(777)">
     <g id="user168-+-Identificação" transform="translate(110)">
      <g id="user168" transform="translate(26)">
       <g id="Group">
        <path id="Shape" d="m10.004 10.598c2.465 0 4.464-2.3623 4.464-5.2765 0-4.0411-1.998-5.2765-4.464-5.2765-2.4656 0.000012-4.4642 1.2354-4.4642 5.2765 0.0001 2.9142 1.9987 5.2765 4.4642 5.2765z"/>
        <path id="Shape" d="m19.862 18.364l-2.252-5.123c-0.103-0.234-0.284-0.429-0.51-0.547l-3.495-1.838c-0.077-0.04-0.17-0.032-0.24 0.021-0.988 0.755-2.151 1.154-3.361 1.154-1.2105 0-2.3728-0.399-3.3614-1.154-0.0695-0.053-0.1628-0.061-0.2399-0.021l-3.4952 1.838c-0.2253 0.118-0.4061 0.312-0.5092 0.547l-2.2523 5.123c-0.15525 0.354-0.12342 0.758 0.08519 1.082 0.20852 0.324 0.56141 0.517 0.94401 0.517h17.658c0.382 0 0.735-0.193 0.944-0.517 0.208-0.324 0.24-0.728 0.085-1.082z"/>
       </g>
      </g>
     </g>
    </g>
   </g>
  </g>
 </g>
</svg>
