<?xml version="1.0" encoding="UTF-8" standalone="no"?>
<svg xmlns:sketch="http://www.bohemiancoding.com/sketch/ns" xmlns="http://www.w3.org/2000/svg" height="40px" width="22px" version="1.1" xmlns:xlink="http://www.w3.org/1999/xlink" viewBox="0 0 22 40">
 <title>facebook</title> 
 <g id="Desktop" fill-rule="evenodd" sketch:type="MSPage" fill="none">
  <g id="Página-Inicial" transform="translate(-532 -2653)" fill="#fff" sketch:type="MSArtboardGroup">
   <g id="rodapé" transform="translate(0 2625)" sketch:type="MSLayerGroup">
    <g id="social" sketch:type="MSShapeGroup">
     <g id="Group" transform="translate(532 28)">
      <g id="facebook">
       <path id="Shape" d="m20.655 0.0082474l-5.14-0.0082474c-5.7748 0-9.5068 3.8289-9.5068 9.7551v4.4979h-5.1682c-0.4466 0-0.80825 0.362-0.80825 0.808l0.000003 6.517c0 0.447 0.36206 0.808 0.80825 0.808h5.1682v16.444c0 0.447 0.3617 0.808 0.8083 0.808h6.7435c0.446 0 0.808-0.362 0.808-0.808v-16.444h6.043c0.446 0 0.808-0.361 0.808-0.808l0.002-6.517c0-0.214-0.085-0.419-0.236-0.571-0.152-0.152-0.358-0.237-0.572-0.237h-6.045v-3.813c0-1.8326 0.437-2.7629 2.824-2.7629l3.462-0.0012c0.447 0 0.808-0.3621 0.808-0.8083v-6.0511c0-0.44578-0.361-0.80743-0.807-0.80825v-0.0000026z"/>
      </g>
     </g>
    </g>
   </g>
  </g>
 </g>
</svg>
