<?xml version="1.0" encoding="UTF-8" standalone="no"?>
<svg xmlns:sketch="http://www.bohemiancoding.com/sketch/ns" xmlns="http://www.w3.org/2000/svg" height="24px" width="24px" version="1.1" xmlns:xlink="http://www.w3.org/1999/xlink" viewBox="0 0 24 24">
 <title>lupa</title> 
 <g id="Desktop" fill-rule="evenodd" sketch:type="MSPage" fill="none">
  <g id="Página-Inicial" transform="translate(-926 -139)" fill="currentColor" sketch:type="MSArtboardGroup">
   <g id="topo" sketch:type="MSLayerGroup">
    <g id="busca" sketch:type="MSShapeGroup" transform="translate(388 128)">
     <g id="lupa" transform="translate(538 11)">
      <g id="Group" transform="translate(.000626)">
       <path id="Shape" d="m22.954 20.127l-5.414-5.498c-0.807 1.274-1.875 2.358-3.13 3.177l5.416 5.497c0.864 0.878 2.266 0.878 3.128 0 0.865-0.876 0.865-2.299 0-3.176z"/>
       <path id="Shape" d="m17.702 8.9854c0-4.962-3.963-8.9854-8.8508-8.9854-4.8879 0-8.8512 4.0234-8.8512 8.9854 0.000048645 4.9626 3.9633 8.9856 8.8512 8.9856 4.8878 0 8.8508-4.023 8.8508-8.9856zm-8.8508 6.7386c-3.6606 0-6.6383-3.022-6.6383-6.7385 0-3.7162 2.9777-6.739 6.6383-6.739 3.6608 0 6.6388 3.0228 6.6388 6.739 0 3.7165-2.978 6.7385-6.6388 6.7385z"/>
       <path id="Shape" d="m3.6881 8.9854h1.475c0-2.0643 1.6546-3.7439 3.688-3.7439v-1.4975c-2.8465 0-5.163 2.3517-5.163 5.2414z"/>
      </g>
     </g>
    </g>
   </g>
  </g>
 </g>
</svg>
