<?xml version="1.0" encoding="UTF-8" standalone="no"?>
<svg xmlns:sketch="http://www.bohemiancoding.com/sketch/ns" xmlns="http://www.w3.org/2000/svg" height="21px" width="21px" version="1.1" xmlns:xlink="http://www.w3.org/1999/xlink" viewBox="0 0 21 21">
 <title>Shape</title> 
 <g id="Desktop" fill-rule="evenodd" sketch:type="MSPage" fill="none">
  <g id="Página-Inicial" transform="translate(-785 -28)" fill="currentColor" sketch:type="MSArtboardGroup">
   <g id="topo" sketch:type="MSLayerGroup">
    <g id="nav" sketch:type="MSShapeGroup" transform="translate(28 25)">
     <g id="telefone" transform="translate(757.5 3.1855)">
      <path id="Shape" d="m19.501 15.809l-3.071-3.089c-0.612-0.613-1.625-0.595-2.259 0.042l-1.547 1.557c-0.098-0.055-0.199-0.111-0.305-0.171-0.978-0.545-2.315-1.291-3.7228-2.708-1.4116-1.42-2.1545-2.7669-2.6976-3.7504-0.0573-0.1042-0.1123-0.2047-0.1665-0.3001l1.0386-1.043 0.5107-0.5142c0.6341-0.6379 0.6516-1.6567 0.0412-2.2713l-3.0717-3.0901c-0.6104-0.61377-1.6241-0.59515-2.2582 0.04278l-0.8657 0.87572 0.0236 0.0236c-0.29026 0.3725-0.53283 0.8022-0.71334 1.2655-0.1664 0.441-0.27 0.8619-0.31737 1.2836-0.4056 3.3819 1.131 6.4729 5.301 10.667 5.7641 5.797 10.409 5.359 10.61 5.337 0.436-0.052 0.855-0.157 1.28-0.323 0.456-0.179 0.883-0.423 1.253-0.714l0.019 0.017 0.877-0.864c0.633-0.638 0.651-1.657 0.041-2.273z"/>
     </g>
    </g>
   </g>
  </g>
 </g>
</svg>
