<?xml version="1.0" encoding="UTF-8" standalone="no"?>
<svg xmlns:sketch="http://www.bohemiancoding.com/sketch/ns" xmlns="http://www.w3.org/2000/svg" height="20px" width="24px" version="1.1" xmlns:xlink="http://www.w3.org/1999/xlink" viewBox="0 0 24 20">
 <title>carrinho</title> 
 <g id="Desktop" fill-rule="evenodd" sketch:type="MSPage" fill="none">
  <g id="Página-Inicial" transform="translate(-1170 -142)" fill="currentColor" sketch:type="MSArtboardGroup">
   <g id="topo" sketch:type="MSLayerGroup">
    <g id="compras" sketch:type="MSShapeGroup" transform="translate(1161 135)">
     <g id="carrinho" transform="translate(9 7)">
      <path id="Shape" d="m20.311 13.105l2.732-8.3042c0.137-0.3993 0.033-0.6393-0.077-0.7977-0.284-0.4054-0.866-0.4093-0.979-0.4093l-15.439-0.003-0.4118-1.9854c-0.1114-0.4685-0.4401-0.9154-1.1028-0.9154h-4.3389c-0.44987 0-0.6945 0.21385-0.6945 0.6408v1.1461c0 0.4131 0.24387 0.5208 0.71041 0.5208h3.6634l2.8037 12.09c-0.4453 0.479-0.6877 1.177-0.6877 1.829 0 1.434 1.124 2.755 2.5599 2.755 1.3553 0 2.3723-1.29 2.5373-2.059h5.46c0.166 0.769 0.989 2.09 2.537 2.09 1.411 0 2.558-1.241 2.558-2.673 0-1.424-0.852-2.686-2.544-2.686-0.703 0-1.538 0.384-1.926 0.961h-6.709c-0.487-0.769-1.1521-1.007-1.8247-1.034l-0.0931-0.504h10.209c0.769 0 0.921-0.285 1.057-0.662zm-0.708 2.917c0.531 0 0.962 0.437 0.962 0.976 0 0.54-0.431 0.977-0.962 0.977s-0.963-0.437-0.963-0.977c0.001-0.539 0.432-0.976 0.963-0.976zm-9.602 0.976c0 0.546-0.4363 0.99-0.9717 0.99-0.537-0.002-0.974-0.444-0.974-0.99 0-0.545 0.437-0.989 0.974-0.989 0.5354 0 0.9717 0.444 0.9717 0.989z"/>
     </g>
    </g>
   </g>
  </g>
 </g>
</svg>
