<?xml version="1.0" encoding="UTF-8" standalone="no"?>
<svg xmlns:sketch="http://www.bohemiancoding.com/sketch/ns" xmlns="http://www.w3.org/2000/svg" height="40px" width="41px" version="1.1" xmlns:xlink="http://www.w3.org/1999/xlink" viewBox="0 0 41 40"><!-- Generator: Sketch 3.3.3 (12072) - http://www.bohemiancoding.com/sketch -->
 <title>instagram</title>
 <desc>Created with Sketch.</desc>
 <g id="Desktop" fill-rule="evenodd" sketch:type="MSPage" fill="none">
  <g id="Página-Inicial" transform="translate(-614 -2653)" fill="#fff" sketch:type="MSArtboardGroup">
   <g id="rodapé" transform="translate(0 2625)" sketch:type="MSLayerGroup">
    <g id="social" sketch:type="MSShapeGroup">
     <g id="Group" transform="translate(532 28)">
      <g id="instagram" transform="translate(82.296)">
       <path id="Shape" d="m5.1024 0h29.549c2.806 0 5.102 2.0776 5.102 5.102v29.549c0 3.025-2.296 5.102-5.102 5.102h-29.549c-2.8065 0-5.102-2.077-5.102-5.102v-29.549c0-3.0244 2.2955-5.102 5.1024-5.102zm23.856 4.4167c-0.984 0-1.789 0.8049-1.789 1.7898v4.2835c0 0.985 0.805 1.79 1.789 1.79h4.493c0.985 0 1.79-0.805 1.79-1.79v-4.2835c0-0.9849-0.805-1.7898-1.79-1.7898h-4.493zm6.302 12.394h-3.499c0.331 1.081 0.51 2.226 0.51 3.411 0 6.612-5.533 11.972-12.357 11.972-6.823 0-12.356-5.36-12.356-11.972 0.0004-1.186 0.1791-2.33 0.5106-3.411h-3.651v16.793c0 0.869 0.711 1.58 1.5804 1.58h27.682c0.87 0 1.581-0.711 1.581-1.58v-16.793h-0.001zm-15.346-4.757c-4.409 0-7.984 3.464-7.984 7.736 0 4.273 3.575 7.736 7.984 7.736s7.984-3.463 7.984-7.736c0-4.272-3.574-7.736-7.984-7.736z"/>
      </g>
     </g>
    </g>
   </g>
  </g>
 </g>
</svg>
