<?xml version="1.0" encoding="UTF-8" standalone="no"?>
<svg xmlns:sketch="http://www.bohemiancoding.com/sketch/ns" xmlns="http://www.w3.org/2000/svg" height="40px" width="35px" version="1.1" xmlns:xlink="http://www.w3.org/1999/xlink" viewBox="0 0 35 40"><!-- Generator: Sketch 3.3.3 (12072) - http://www.bohemiancoding.com/sketch -->
 <title>youtube</title>
 <desc>Created with Sketch.</desc>
 <g id="Desktop" fill-rule="evenodd" sketch:type="MSPage" fill="none">
  <g id="Página-Inicial" transform="translate(-714 -2653)" fill="#fff" sketch:type="MSArtboardGroup">
   <g id="rodapé" transform="translate(0 2625)" sketch:type="MSLayerGroup">
    <g id="social" sketch:type="MSShapeGroup">
     <g id="Group" transform="translate(532 28)">
      <g id="youtube" transform="translate(182.74)">
       <path id="YouTube" d="m28.417 29.259h-2.195l0.01-1.275c0-0.567 0.466-1.031 1.034-1.031h0.14c0.57 0 1.037 0.464 1.037 1.031l-0.026 1.275zm-8.233-2.733c-0.557 0-1.013 0.374-1.013 0.833v6.201c0 0.457 0.456 0.831 1.013 0.831 0.559 0 1.015-0.374 1.015-0.831v-6.201c0-0.459-0.456-0.833-1.015-0.833zm13.372-3.469v11.798c0 2.829-2.454 5.145-5.454 5.145h-22.426c-3.0004 0-5.4538-2.316-5.4538-5.145l0.00002-11.798c0-2.829 2.4534-5.145 5.4538-5.145h22.426c3 0 5.454 2.316 5.454 5.145zm-26.384 13.079l-0.0018-12.428 2.78 0.001v-1.841l-7.4106-0.011v1.81l2.3133 0.007v12.462h2.3191zm8.333-10.576h-2.317v6.636c0 0.96 0.058 1.44-0.004 1.609-0.188 0.515-1.036 1.061-1.366 0.055-0.056-0.176-0.006-0.707-0.007-1.619l-0.01-6.681h-2.3046l0.0072 6.576c0.0017 1.008-0.0227 1.76 0.008 2.102 0.0564 0.603 0.0364 1.306 0.5964 1.708 1.042 0.751 3.041-0.112 3.541-1.186l-0.005 1.371 1.862 0.002-0.001-10.573zm7.415 7.599l-0.005-5.523c-0.002-2.105-1.576-3.366-3.714-1.663l0.01-4.106-2.315 0.004-0.012 14.173 1.904-0.028 0.174-0.882c2.432 2.231 3.962 0.702 3.958-1.975zm7.254-0.732l-1.738 0.009c-0.001 0.069-0.004 0.148-0.004 0.235v0.97c0 0.519-0.429 0.942-0.95 0.942h-0.341c-0.521 0-0.95-0.423-0.95-0.942v-0.108-1.066-1.377h3.979v-1.498c0-1.094-0.028-2.188-0.118-2.814-0.285-1.98-3.064-2.294-4.468-1.281-0.44 0.317-0.776 0.74-0.972 1.309-0.197 0.57-0.296 1.347-0.296 2.335v3.294c0.001 5.474 6.651 4.701 5.858-0.008zm-8.915-17.879c0.12 0.29 0.305 0.526 0.557 0.704 0.249 0.175 0.568 0.263 0.949 0.263 0.334 0 0.63-0.091 0.888-0.277 0.257-0.185 0.473-0.462 0.65-0.831l-0.044 0.909h2.584v-10.987l-2.034-0.0001v8.5511c0 0.463-0.381 0.842-0.848 0.842-0.463 0-0.846-0.379-0.846-0.842v-8.5511h-2.123v7.4111c0 0.944 0.018 1.573 0.046 1.892 0.029 0.317 0.102 0.621 0.221 0.916zm-7.829-6.2058c0-1.0546 0.088-1.8782 0.262-2.472 0.176-0.5915 0.492-1.0671 0.95-1.4258 0.457-0.3604 1.041-0.5408 1.752-0.5408 0.598 0 1.11 0.1173 1.537 0.3471 0.43 0.2311 0.761 0.5311 0.991 0.9013 0.234 0.3716 0.394 0.7533 0.478 1.144 0.087 0.396 0.13 0.9933 0.13 1.7991v2.7789c0 1.019-0.041 1.769-0.121 2.245-0.078 0.477-0.247 0.92-0.509 1.335-0.258 0.41-0.591 0.718-0.994 0.914-0.408 0.197-0.875 0.294-1.402 0.294-0.589 0-1.085-0.081-1.494-0.251-0.41-0.169-0.727-0.423-0.953-0.762-0.228-0.338-0.388-0.751-0.485-1.232-0.097-0.48-0.144-1.203-0.144-2.166l0.002-2.9088zm2.023 4.3648c0 0.622 0.463 1.13 1.027 1.13 0.565 0 1.026-0.508 1.026-1.13v-5.8492c0-0.6214-0.461-1.1294-1.026-1.1294-0.564 0-1.027 0.508-1.027 1.1294v5.8492zm-7.1499 2.953h2.4369l0.003-8.4267 2.88-7.2186-2.666-0.000033-1.5308 5.3617-1.5529-5.3764h-2.6382l3.064 7.2373 0.004 8.4227z"/>
      </g>
     </g>
    </g>
   </g>
  </g>
 </g>
</svg>
